<svg version="1.1" id="Layer_1" xmlns="http://www.w3.org/2000/svg" xmlns:xlink="http://www.w3.org/1999/xlink" x="0px" y="0px" viewBox="0 0 500 500" style="width: 144px;" xml:space="preserve" data-imageid="superman-37" imageName="Superman" class="illustrations_image">
<style type="text/css">
	.st0_superman-37{fill:#F56132;}
	.st1_superman-37{fill:#093F68;}
	.st2_superman-37{fill:#68E1FD;}
	.st3_superman-37{fill:#FFFFFF;}
	.st4_superman-37{fill:#725858;}
	.st5_superman-37{fill:#FFC9B0;}
</style>
<g id="robe_superman-37">
	<path class="st0_superman-37" d="M90.8,378.2c5.9,0.7,12.1,0.5,17.7,2.7c16.7,6.6,18.8,29.7,31.4,42.5c8.5,8.7,21.1,11.8,33.1,13.4&#10;&#9;&#9;c17.7,2.3,35.7,2,53.3-0.9c18.2-3,37.3-9.8,47.7-25c9.8-14.3,9.9-32.9,9.5-50.3c-0.4-14.4-0.8-29.1-5.2-42.8S265,291,251.9,285.1&#10;&#9;&#9;c-14.4-6.6-31.2-3.9-46.8-0.6c-24.6,5.1-49.4,11.3-70.9,24.3c-14.3,8.6-26.7,20-41.2,28.3c-7.2,4.3-15.1,7.3-23.3,8.9&#10;&#9;&#9;c-8.4,1.5-16.4-1.1-24.2-0.4C50.9,363.5,73.3,376.1,90.8,378.2z"/>
	<path class="st1_superman-37" d="M196.6,440.5c-8,0-15.9-0.5-23.8-1.5c-11-1.4-24.9-4.3-34.4-14c-5.4-5.5-8.9-12.6-12.3-19.5&#10;&#9;&#9;c-4.8-9.7-9.3-18.9-18.4-22.5c-3.8-1.5-7.9-1.8-12.2-2.1c-1.6-0.1-3.3-0.2-4.9-0.4l0,0c-18.7-2.2-41.5-15.5-47.2-34.1&#10;&#9;&#9;c-0.2-0.6-0.1-1.3,0.3-1.8c0.4-0.6,0.9-0.9,1.6-1c3.6-0.2,7.3-0.1,10.9,0.4c4.3,0.4,8.7,0.8,13.1,0c8-1.6,15.6-4.5,22.7-8.7&#10;&#9;&#9;c7.6-4.3,14.7-9.6,21.7-14.8c6.2-4.6,12.7-9.4,19.5-13.5c22.6-13.7,48.8-19.9,71.6-24.6c16.1-3.4,33.1-6,48.1,0.8&#10;&#9;&#9;c12.4,5.7,22.5,18.1,27.6,34c4.6,14.5,5,29.9,5.3,43.4c0.5,18.9,0,37.1-9.8,51.6c-9.1,13.3-25.6,22-49.1,25.9&#10;&#9;&#9;C216.8,439.6,206.7,440.4,196.6,440.5z M48.5,347.7C55,362.9,75,374.1,91.1,376l0,0c1.6,0.2,3.2,0.3,4.7,0.4&#10;&#9;&#9;c4.5,0.3,9.1,0.7,13.5,2.4c10.7,4.2,15.8,14.6,20.7,24.6c3.2,6.6,6.6,13.4,11.5,18.4c8.6,8.7,21.6,11.4,31.9,12.7&#10;&#9;&#9;c17.5,2.3,35.2,2,52.6-0.9c22.3-3.7,37.9-11.8,46.3-24.1c9.1-13.4,9.5-30.8,9.1-49c-0.3-13.3-0.7-28.4-5.1-42.2&#10;&#9;&#9;c-4.7-14.8-13.9-26.2-25.2-31.4c-13.8-6.3-30-3.7-45.4-0.5c-22.4,4.6-48.2,10.7-70.2,24.1c-6.6,4-13,8.7-19.1,13.3&#10;&#9;&#9;c-7,5.2-14.3,10.6-22.1,15c-7.4,4.4-15.5,7.5-24,9.2c-5,0.9-9.7,0.5-14.3,0C53.2,347.9,50.8,347.7,48.5,347.7z"/>
</g>
<g id="character_superman-37">
	<path class="st2_superman-37 targetColor" d="M432.8,199.7l-29.2,10.2c7.9,18.5,12,41.7,3.9,47.3c-8.1,5.6-47.4,9.5-84.7,4.8c-8.2-1.1-16.3,2.8-20.7,9.8&#10;&#9;&#9;h-56.7c-4.4-7-12.5-10.9-20.7-9.8c-37.3,4.8-76.5,0.8-84.7-4.8s-4-28.8,3.9-47.3l-29.2-10.2c-4.2,9.8-25.6,37.7-20.5,68.8&#10;&#9;&#9;c6.1,37.1,60.6,38.2,78.6,38.5c10.5,0.2,20.9-0.1,29.9-0.6c4.2-0.2,8.1-0.5,11.6-0.8v106.1h115.8V305.3c4.1,0.4,9.1,0.8,14.6,1.1&#10;&#9;&#9;c9,0.5,19.4,0.9,29.9,0.6c17.9-0.4,72.5-1.4,78.5-38.6C458.4,237.4,437,209.4,432.8,199.7z" style="fill: rgb(104, 225, 253);"/>
	<path class="st1_superman-37" d="M330.3,414.1H214.4c-1.3,0-2.4-1.1-2.4-2.4V308.2c-2.8,0.2-5.8,0.4-9,0.6c-10.7,0.6-20.8,0.8-30.1,0.7&#10;&#9;&#9;c-18.4-0.4-74.5-1.5-80.9-40.6c-4.2-25.9,9.4-49.9,16.7-62.7c1.7-3,3.2-5.7,4-7.5c0.5-1.2,1.8-1.7,3-1.3l29.2,10.2&#10;&#9;&#9;c0.6,0.2,1.2,0.7,1.4,1.3c0.3,0.6,0.3,1.3,0,1.9c-8.6,19.9-10.8,40.2-4.8,44.3c7.4,5.1,45.6,9.2,83,4.4c8.7-1.1,17.2,2.7,22.3,9.8&#10;&#9;&#9;h54.1c5-7.1,13.6-10.9,22.3-9.8c37.4,4.8,75.5,0.7,83-4.4c6-4.1,3.8-24.4-4.8-44.3c-0.3-0.6-0.3-1.3,0-1.9c0.3-0.6,0.8-1.1,1.4-1.3&#10;&#9;&#9;l29.2-10.2c1.2-0.4,2.5,0.2,3,1.3c0.8,1.8,2.3,4.4,4,7.5c7.3,12.8,20.9,36.8,16.7,62.7c-6.4,39.2-62.5,40.3-80.9,40.6&#10;&#9;&#9;c-9.3,0.2-19.4,0-30.1-0.7c-4-0.2-8-0.5-12-0.9v103.8C332.7,413.1,331.6,414.2,330.3,414.1C330.3,414.2,330.3,414.2,330.3,414.1z&#10;&#9;&#9; M216.8,409.3h111v-104c0-0.7,0.3-1.3,0.8-1.8c0.5-0.5,1.2-0.7,1.9-0.6c4.8,0.4,9.7,0.8,14.5,1.1c10.6,0.6,20.6,0.8,29.7,0.6&#10;&#9;&#9;c17.4-0.3,70.4-1.4,76.2-36.6c4-24.2-8.6-46.3-16.1-59.5c-1.3-2.3-2.4-4.2-3.3-5.9l-24.7,8.7c6.6,16.4,12.1,41,2.1,47.8&#10;&#9;&#9;c-9.1,6.2-49.6,9.9-86.3,5.2c-7.3-0.9-14.4,2.5-18.3,8.7c-0.4,0.7-1.2,1.1-2.1,1.1h-56.7c-0.8,0-1.6-0.4-2.1-1.1&#10;&#9;&#9;c-3.9-6.2-11-9.6-18.3-8.7c-36.8,4.7-77.3,1-86.3-5.2c-10-6.8-4.5-31.5,2.1-47.8l-24.7-8.7c-0.8,1.7-2,3.6-3.3,5.9&#10;&#9;&#9;c-7.5,13.2-20.1,35.4-16.1,59.5c5.8,35.2,58.8,36.2,76.2,36.6c9.2,0.2,19.2,0,29.7-0.6c4.2-0.2,8.1-0.5,11.5-0.8&#10;&#9;&#9;c1.3-0.1,2.5,0.9,2.6,2.2c0,0.1,0,0.1,0,0.2V409.3z"/>
	<path class="st0_superman-37" d="M148.8,193.1l3.3-8.4c0,0,9.4-2.7,11.4-9.1s5.3-13.9,1.1-15.5s-6-2.4-6-2.4s2.8-4.3,0-7.8s-32.5-4-34.9-0.7&#10;&#9;&#9;c-7,9.5-10.2,26.6-8.8,39.7l-21.7,38.5l50.9,5L148.8,193.1z"/>
	<path class="st1_superman-37" d="M144.1,234.6h-0.2l-50.9-5c-1.2-0.1-2.1-1.2-2-2.4c0-0.3,0.1-0.6,0.3-0.9l21.4-37.9&#10;&#9;&#9;c-1.2-12.4,1.5-30.1,9.2-40.5c0.6-0.8,2.1-2.8,15-3.1c2.1,0,20.2-0.2,23.4,3.7c1.8,2.3,2.2,5.3,1.2,8c0.9,0.4,2.2,0.9,3.9,1.5&#10;&#9;&#9;c5.6,2.1,3.2,9.3,1.1,15.6c-0.3,0.9-0.6,1.8-0.9,2.6c-1.9,6.1-9.1,9.2-11.8,10.2l-2.8,7.2l-4.7,39&#10;&#9;&#9;C146.1,233.8,145.2,234.7,144.1,234.6z M96.7,225.6l45.5,4.5l4.4-37.2c0-0.2,0.1-0.4,0.1-0.5l3.2-8.4c0.2-0.6,0.8-1.1,1.4-1.3&#10;&#9;&#9;c2.3-0.7,8.6-3.4,9.9-7.7c0.3-0.9,0.6-1.8,0.9-2.7c1.2-3.6,3.2-9.5,1.5-10.2c-4.3-1.6-6.1-2.4-6.1-2.4c-0.6-0.3-1-0.8-1.2-1.4&#10;&#9;&#9;c-0.2-0.6-0.1-1.3,0.3-1.8c0.1-0.1,1.9-3,0.1-5.2c-2.9-2.4-28.3-3-31.6-0.6c-6.2,8.4-9.7,24.5-8.2,38c0,0.5,0,0.9-0.3,1.3&#10;&#9;&#9;L96.7,225.6z"/>
	<path class="st0_superman-37" d="M158.5,157.8c0,0-24.9-3.5-23.8,3.2s14.5,6.7,14.5,6.7s-14,1.7-12.5,12.2"/>
	<path class="st1_superman-37" d="M136.6,182.1c-1.1,0-2-0.8-2.2-1.9c-0.5-3,0.3-6,2.1-8.4c1-1.3,2.3-2.4,3.7-3.2c-3.6-1.1-7.1-3.3-7.7-7.2&#10;&#9;&#9;c-0.2-1.4,0.2-2.8,1.2-3.8c4.3-4.4,20.3-2.5,25.1-1.8c1.2,0.2,2,1.3,1.8,2.4c-0.2,1.2-1.3,2-2.4,1.9c-10.1-1.4-20.4-1.1-21.4,0.6&#10;&#9;&#9;c0.6,3.7,8.6,4.9,12.3,4.9c1.2,0,2.2,0.9,2.2,2.1c0,1.1-0.8,2.1-2,2.2c-0.1,0-6.5,0.9-9.4,4.6c-1.1,1.5-1.6,3.4-1.2,5.2&#10;&#9;&#9;c0.2,1.2-0.6,2.3-1.8,2.4c0,0,0,0,0,0C136.8,182.1,136.7,182.1,136.6,182.1z"/>
	<path class="st0_superman-37" d="M398.9,193.1l-3.3-8.4c0,0-9.4-2.7-11.4-9.1s-5.3-13.9-1.1-15.5s6-2.4,6-2.4s-2.8-4.3,0-7.8s32.5-4,34.9-0.7&#10;&#9;&#9;c7,9.5,10.2,26.6,8.8,39.7l21.7,38.5l-51,5L398.9,193.1z"/>
	<path class="st1_superman-37" d="M403.6,234.6c-1.1,0-2-0.8-2.2-1.9l-4.7-39l-2.8-7.2c-2.7-1-9.9-4.1-11.8-10.2c-0.3-0.9-0.5-1.7-0.8-2.6&#10;&#9;&#9;c-2.1-6.3-4.5-13.5,1.1-15.6c1.6-0.6,2.9-1.1,3.9-1.5c-1-2.7-0.5-5.7,1.2-8c3.2-4,21.3-3.8,23.4-3.7c12.9,0.2,14.4,2.3,15,3.1&#10;&#9;&#9;c7.7,10.4,10.5,28.1,9.2,40.5l21.4,37.9c0.6,1,0.2,2.4-0.8,3c-0.3,0.2-0.6,0.2-0.9,0.3l-51,5L403.6,234.6z M409.7,149.2&#10;&#9;&#9;c-8,0-17.2,0.8-18.9,2.2c-1.7,2.2,0.1,5.1,0.2,5.2c0.3,0.5,0.4,1.2,0.3,1.8c-0.2,0.6-0.6,1.1-1.2,1.4c0,0-1.8,0.8-6.1,2.4&#10;&#9;&#9;c-1.7,0.6,0.3,6.6,1.5,10.2c0.3,0.9,0.6,1.8,0.9,2.6c1.4,4.3,7.6,7,9.9,7.7c0.7,0.2,1.2,0.7,1.4,1.3l3.3,8.4&#10;&#9;&#9;c0.1,0.2,0.1,0.3,0.1,0.5l4.5,37.2l45.5-4.5L431,190c-0.2-0.4-0.3-0.9-0.3-1.3c1.5-13.5-2-29.6-8.3-38.1&#10;&#9;&#9;C421,149.6,415.7,149.2,409.7,149.2L409.7,149.2z"/>
	<path class="st0_superman-37" d="M389.2,157.8c0,0,24.9-3.5,23.8,3.2s-14.5,6.7-14.5,6.7s14,1.7,12.5,12.2"/>
	<path class="st1_superman-37" d="M411.1,182.1c-0.1,0-0.2,0-0.3,0c-1.2-0.2-2-1.2-1.9-2.4c0,0,0,0,0,0c0.3-1.8-0.1-3.7-1.2-5.2&#10;&#9;&#9;c-2.9-3.7-9.3-4.6-9.4-4.6c-1.2-0.1-2.1-1.2-2-2.4c0.1-1.1,1.1-2,2.2-2c3.8,0,11.8-1.3,12.3-4.9c-0.9-1.8-11.4-2.1-21.4-0.7&#10;&#9;&#9;c-1.2,0.2-2.3-0.7-2.5-1.9c-0.2-1.2,0.7-2.3,1.9-2.4l0,0c4.8-0.7,20.8-2.5,25,1.8c1,1,1.5,2.4,1.2,3.8c-0.6,3.9-4.1,6.1-7.7,7.2&#10;&#9;&#9;c1.4,0.8,2.7,1.9,3.7,3.2c1.8,2.4,2.6,5.5,2.1,8.4C413.1,181.3,412.2,182.1,411.1,182.1z"/>
	<path class="st3_superman-37" d="M272.6,398c-0.6,0-1.1-0.2-1.5-0.6L228.4,355c-0.8-0.8-0.8-2.1-0.1-3l15.9-17.2c0.4-0.4,1-0.7,1.6-0.7h54.8&#10;&#9;&#9;c0.6,0,1.2,0.3,1.6,0.7l11.5,12.6c0.7,0.8,0.7,2,0,2.9l-39.5,46.9C273.8,397.7,273.2,398,272.6,398L272.6,398z M232.9,353.4&#10;&#9;&#9;l39.5,39.2l36.8-43.6l-9.6-10.5h-52.8L232.9,353.4z"/>
	<path class="st0_superman-37" d="M329.9,269.3c0,16.1-58,49.3-58,49.3s-58-33.2-58-49.3s25.9-8.9,58-8.9S329.9,253.3,329.9,269.3z"/>
	<path class="st1_superman-37" d="M271.9,320.8c-0.4,0-0.8-0.1-1.1-0.3c-6-3.5-59.1-34.3-59.1-51.2c-0.2-3.1,1-6.1,3.2-8.3&#10;&#9;&#9;c5.7-5.3,17.5-4.6,33.8-3.6c7,0.4,14.9,0.9,23.1,0.9s16.1-0.5,23.1-0.9c16.3-1,28.1-1.7,33.8,3.6c2.2,2.2,3.4,5.2,3.3,8.4&#10;&#9;&#9;c0,16.9-53,47.7-59.1,51.2C272.6,320.7,272.3,320.8,271.9,320.8z M232.9,261c-6.9,0-12.3,0.7-14.9,3.1c-1.4,1.4-2.1,3.3-1.9,5.2&#10;&#9;&#9;c0,10.7,32.9,33.6,55.8,46.8c22.8-13.2,55.8-36.1,55.8-46.8c0.1-1.9-0.5-3.8-1.9-5.2c-4.3-4.1-16.5-3.3-30.5-2.5&#10;&#9;&#9;c-7,0.4-15,0.9-23.4,0.9s-16.3-0.5-23.4-0.9C242.9,261.3,237.5,261,232.9,261L232.9,261z"/>
	<path class="st1_superman-37" d="M259.8,275.2c0,0-0.7,30.2,12.1,43.5c0,0,13.4-13.8,13.4-45.1L259.8,275.2z"/>
	<path class="st1_superman-37" d="M271.9,321.1L271.9,321.1c-0.7,0-1.3-0.3-1.7-0.7c-13.3-13.9-12.8-43.9-12.8-45.2c0-1.3,1-2.3,2.3-2.4&#10;&#9;&#9;l25.6-1.7c1.3-0.1,2.5,0.9,2.6,2.3c0,0,0,0.1,0,0.1c0,31.9-13.5,46.2-14.1,46.8C273.2,320.8,272.6,321.1,271.9,321.1z M262.2,277.5&#10;&#9;&#9;c0.1,6.6,1.3,26.4,9.6,37.4c3.3-4.7,10.5-17.2,11.1-38.7L262.2,277.5z"/>
	<path class="st4_superman-37" d="M181.2,146.7c-0.8-4.9-1.3-9.9-1.5-14.9c-1-23.8-3.2-56.3,21.4-69.3c7.8-4.1,18.9-4.8,24.4,2.1&#10;&#9;&#9;c4.2-6.7,8.9-13.6,16.1-17c8.1-3.9,17.7-2.5,26.5-0.3c16.1,3.9,31.6,9.8,46.2,17.7c6.1,3.3,12.1,7,18.7,9.6&#10;&#9;&#9;c7.3,2.7,15,4.2,22.8,4.4c3.5,0.1,19.1-4.2,18-10c1.5,7.2,2.3,14.6,0.9,21.8s-5.4,14.1-11.7,17.8c10.3-3.1,19-10.2,24.1-19.7&#10;&#9;&#9;c2.2,6.3,1.2,13.4-1.3,19.7s-6.6,11.7-10.6,17.1l14.4-8.4c-3.2,11.6-11.2,20.9-19.8,29c-3.9,3.7-7.8,6-9.2,11.2&#10;&#9;&#9;c-1.5,6-1.3,12.4-3.2,18.3c-2.4,7.5-5.7,14.8-9.8,21.5c-15.9,26-43.9,43.6-74.7,43.6c-26.3,0-51-12.9-67.4-33.2&#10;&#9;&#9;c-8.6-10.8-15-23.3-18.5-36.6C184.4,163,182.6,154.9,181.2,146.7z"/>
	<path class="st1_superman-37" d="M272.6,243.2c-26.2,0-52.1-12.8-69.3-34.2c-8.9-11.1-15.3-23.9-19-37.5c-2.3-8-4.1-16.2-5.5-24.4l0,0&#10;&#9;&#9;c-0.8-5-1.3-10.1-1.5-15.1l-0.1-2.4c-1-23.6-2.3-55.8,22.8-69.1c7.9-4.2,18.4-5,25.1,0.4c4.1-6.2,8.7-12.2,15.4-15.4&#10;&#9;&#9;c8.9-4.3,19.2-2.7,28.1-0.5c16.3,4,32,10,46.8,18c1.5,0.8,2.9,1.6,4.3,2.4c4.5,2.6,9.2,5,14,7c7.1,2.6,14.5,4,22,4.2h0.1&#10;&#9;&#9;c2.5,0,12.3-2.7,15-6c0.6-0.7,0.5-1,0.5-1.1l0,0c-0.2-1.3,0.7-2.6,2-2.8c1.2-0.2,2.4,0.6,2.7,1.8l0,0c1.9,9.2,2.2,16.2,0.9,22.7&#10;&#9;&#9;c-0.6,3.2-1.7,6.4-3.3,9.3c4.6-3.4,8.5-7.7,11.2-12.8c0.4-0.9,1.4-1.4,2.3-1.3c1,0.1,1.8,0.7,2.1,1.6c2.2,6.3,1.7,13.9-1.4,21.4&#10;&#9;&#9;c-1.2,2.9-2.7,5.8-4.4,8.4l4.7-2.8c1.1-0.7,2.6-0.3,3.3,0.8c0.3,0.6,0.4,1.3,0.2,1.9c-3.6,13-12.8,22.9-20.5,30.1&#10;&#9;&#9;c-0.9,0.8-1.7,1.5-2.5,2.3c-2.8,2.4-5.1,4.4-5.9,7.8c-0.6,2.6-1,5.3-1.3,8c-0.3,3.6-1,7.1-2,10.5c-2.5,7.7-5.9,15.1-10.1,22.1&#10;&#9;&#9;C332.5,226,303.1,243.2,272.6,243.2z M183.6,146.3c1.4,8.1,3.2,16.1,5.4,23.9c3.5,13,9.7,25.2,18.1,35.8&#10;&#9;&#9;c16.3,20.3,40.8,32.4,65.5,32.4c28.8,0,56.7-16.3,72.6-42.5c4-6.6,7.2-13.6,9.6-21c0.9-3.1,1.5-6.3,1.8-9.6&#10;&#9;&#9;c0.3-2.9,0.8-5.8,1.4-8.6c1.2-4.9,4.4-7.6,7.5-10.2c0.8-0.7,1.6-1.4,2.4-2.1c5.9-5.5,12.8-12.8,16.9-21.7l-8.6,5&#10;&#9;&#9;c-1.2,0.7-2.6,0.3-3.3-0.9c-0.5-0.8-0.4-1.9,0.2-2.7c3.6-4.9,7.8-10.4,10.3-16.5c1.7-3.9,2.5-8.1,2.4-12.3&#10;&#9;&#9;c-5.5,7.4-13.3,12.9-22.1,15.5c-1.3,0.4-2.6-0.3-3-1.6c-0.3-1.1,0.1-2.2,1.1-2.8c5.3-3.1,9.1-8.9,10.5-16.1&#10;&#9;&#9;c0.9-4.8,0.9-9.7,0.2-14.6c-5.1,3.8-14.1,5.7-16.7,5.7c-8.1-0.2-16.1-1.7-23.7-4.5c-5-2.1-9.9-4.6-14.7-7.3&#10;&#9;&#9;c-1.4-0.8-2.8-1.6-4.3-2.4c-14.4-7.8-29.7-13.7-45.6-17.6c-8-2-17.3-3.5-24.9,0.2c-6.5,3.1-10.8,9.4-15.1,16.1&#10;&#9;&#9;c-0.4,0.7-1.1,1.1-1.9,1.1c-0.8,0-1.5-0.3-2-0.9c-4.6-5.9-14.4-5.2-21.3-1.5c-22.5,11.9-21.3,41.2-20.3,64.7l0.1,2.4&#10;&#9;&#9;C182.3,136.6,182.8,141.5,183.6,146.3L183.6,146.3z"/>
	<path class="st5_superman-37" d="M259.8,257.1h25.6l0,0v21.1c0,2.5-2,4.5-4.5,4.5c0,0,0,0,0,0h-16.6c-2.5,0-4.5-2-4.5-4.5c0,0,0,0,0,0V257.1&#10;&#9;&#9;L259.8,257.1z"/>
	<path class="st1_superman-37" d="M274.5,285h-3.9c-7.3,0-13.3-5.9-13.3-13.3v-14.7c0-1.3,1.1-2.4,2.4-2.4l0,0h25.6c1.3,0,2.4,1.1,2.4,2.4l0,0&#10;&#9;&#9;v14.7C287.7,279.1,281.8,285,274.5,285z M262.2,259.5v12.3c0,4.7,3.8,8.4,8.4,8.4h3.9c4.7,0,8.4-3.8,8.4-8.4v-12.3H262.2z"/>
	<ellipse class="st5_superman-37" cx="199.5" cy="190.7" rx="24.8" ry="21.4"/>
	<path class="st1_superman-37" d="M199.5,214.5c-15,0-27.3-10.7-27.3-23.8s12.2-23.8,27.3-23.8s27.2,10.7,27.2,23.8S214.5,214.5,199.5,214.5z&#10;&#9;&#9; M199.5,171.7c-12.4,0-22.4,8.5-22.4,19s10.1,19,22.4,19s22.4-8.5,22.4-19S211.9,171.7,199.5,171.7z"/>
	<ellipse class="st5_superman-37" cx="344.3" cy="190.7" rx="24.8" ry="21.4"/>
	<path class="st1_superman-37" d="M344.3,214.5c-15,0-27.2-10.7-27.2-23.8s12.2-23.8,27.2-23.8s27.3,10.7,27.3,23.8S359.3,214.5,344.3,214.5z&#10;&#9;&#9; M344.3,171.7c-12.4,0-22.4,8.5-22.4,19s10,19,22.4,19s22.4-8.5,22.4-19S356.6,171.7,344.3,171.7z"/>
	<path class="st5_superman-37" d="M326,114.2c-1.8-1-3.6-1.9-5.4-2.7c-11.1-4.9-22.6-8.7-34.3-11.4c6.7,10.5,3.7,24.5-6.8,31.2&#10;&#9;&#9;c-3.1,2-6.7,3.2-10.4,3.5c3.8-0.7,7.3-3.7,7.5-7.6c0.2-3.1-1.8-5.9-4.2-7.8c-8.9-6.9-22.3-3.4-32.2-8.8c-5.7-3.1-9.5-8.8-13.1-14.2&#10;&#9;&#9;c-0.9,16.7-5.4,34.2-16.2,47.4c-3.6,4.4-10.9,7.3-12.7,12.7c-2.9,8.4-0.3,20.2-0.3,29c0,41.4,33.5,74.9,74.9,74.9&#10;&#9;&#9;s74.9-33.5,74.9-74.9c0,0,0,0,0-0.1c0-10.4,1.5-20.6-0.2-30.9s-5.4-19.3-10.5-28.4c-1.6-3.1-3.6-6-6-8.6&#10;&#9;&#9;C329.4,116.3,327.7,115.1,326,114.2z"/>
	<path class="st1_superman-37" d="M272.6,262.8c-42.7,0-77.3-34.6-77.3-77.3c0-2.6-0.2-5.6-0.5-8.7c-0.6-7.3-1.2-14.8,0.9-21.1&#10;&#9;&#9;c1.4-4,4.8-6.6,8.1-9.1c1.8-1.3,3.5-2.7,5-4.4c11.6-14.2,14.9-32.8,15.7-46c0.1-1,0.8-1.9,1.8-2.2c1-0.3,2.1,0.1,2.7,1&#10;&#9;&#9;c3.2,5,6.9,10.6,12.2,13.4c4.1,2.2,9,2.8,14.2,3.4c6.4,0.7,13,1.5,18.4,5.7c3.5,2.7,5.3,6.3,5.1,9.8c0,0.5-0.1,1-0.2,1.5&#10;&#9;&#9;c2.8-1.9,5.1-4.5,6.6-7.6c3.1-6.4,2.7-13.9-1.1-19.9c-0.7-1.1-0.4-2.6,0.7-3.3c0.5-0.3,1.2-0.5,1.8-0.3&#10;&#9;&#9;c11.9,2.7,23.6,6.6,34.8,11.6c1.9,0.8,3.8,1.8,5.7,2.8l0,0c1.9,1.1,3.6,2.3,5.2,3.8c2.6,2.7,4.8,5.8,6.5,9.1&#10;&#9;&#9;c5.9,10.6,9.2,19.6,10.8,29.2c1.2,7.2,0.8,14.5,0.5,21.4c-0.1,3.2-0.3,6.6-0.3,9.9C349.8,228.2,315.2,262.8,272.6,262.8z&#10;&#9;&#9; M228.7,103.4c-1.5,13-5.7,29.1-16.2,42c-1.7,1.9-3.7,3.7-5.8,5.2c-2.9,2.2-5.6,4.2-6.5,6.8c-1.8,5.3-1.2,12.3-0.7,19.1&#10;&#9;&#9;c0.3,3.2,0.5,6.2,0.5,9.1c0,40,32.4,72.5,72.5,72.5s72.5-32.4,72.5-72.5c0-3.4,0.2-6.8,0.3-10.1c0.3-7.1,0.6-13.7-0.5-20.4&#10;&#9;&#9;c-1.5-9-4.6-17.6-10.2-27.6c-1.5-2.9-3.3-5.6-5.6-8c-1.3-1.2-2.7-2.3-4.3-3.1l0,0c-1.7-0.9-3.4-1.8-5.2-2.6&#10;&#9;&#9;c-9.4-4.1-19-7.5-28.9-10.1c4.8,13-1.8,27.3-14.8,32.1c-2.2,0.8-4.4,1.3-6.7,1.5c-1.3,0.1-2.5-0.9-2.6-2.2c-0.1-1.2,0.7-2.4,2-2.6&#10;&#9;&#9;c2.6-0.5,5.4-2.6,5.5-5.3c0.1-1.9-1.1-4-3.3-5.7c-4.3-3.3-10-4-16-4.7c-5.4-0.6-11-1.3-16-3.9C234.7,110.4,231.3,107.2,228.7,103.4&#10;&#9;&#9;z"/>
	<circle class="st1_superman-37" cx="237.9" cy="174.6" r="6.9"/>
	<circle class="st1_superman-37" cx="305.2" cy="174.6" r="6.9"/>
	<path class="st1_superman-37" d="M271.9,214.5c-2.3,0-4.6-0.2-6.8-0.6c-1.3-0.2-2.2-1.5-2-2.8c0.2-1.3,1.5-2.2,2.8-2l0,0c0.1,0,5.8,1,10,0.1&#10;&#9;&#9;c0.2-2.2-2.4-9.4-5.8-16.1c-0.6-1.2-0.1-2.6,1.1-3.3c1.2-0.6,2.6-0.1,3.2,1c2.5,4.7,7.9,16.1,5.9,20.6c-0.5,1.1-1.5,2-2.7,2.3&#10;&#9;&#9;C275.7,214.3,273.8,214.5,271.9,214.5z"/>
	<path class="st1_superman-37" d="M252.1,154.7L252.1,154.7l-33.1-0.1c-2.1-0.1-3.8-1.9-3.6-4c0.1-2,1.7-3.5,3.6-3.6l0,0l33.1,0.1&#10;&#9;&#9;c2.1,0,3.8,1.7,3.8,3.9C255.9,153,254.2,154.7,252.1,154.7L252.1,154.7z"/>
	<path class="st1_superman-37" d="M299.2,155.6c-2.1,0-3.8-1.8-3.8-3.9c0-2,1.6-3.6,3.6-3.8l33-1.7c2.1-0.1,3.9,1.6,4,3.6c0.1,2.1-1.5,3.9-3.6,4&#10;&#9;&#9;l-33,1.7L299.2,155.6z"/>
	<path class="st1_superman-37" d="M309.3,213.1c-11.8,0-22.7-5-30.8-8.7c-2.7-1.2-5.1-2.3-7-3c-3.3-1.1-11,1.4-19.1,4&#10;&#9;&#9;c-10.4,3.4-21.1,6.9-27.6,4.9c-11.4-3.4-22.9-16.7-28.8-24.4c-4.7-6.1-13.9-6.6-14-6.6c-0.6,0-1-0.4-1-1v-29.4&#10;&#9;&#9;c0-0.3,0.1-0.6,0.3-0.8c0.2-0.2,0.5-0.3,0.8-0.2c0,0,3.5,0.4,11.1,0.4c2.5,0,6.1-2,10.3-4.2c8.1-4.4,19.3-10.5,33.6-9.1&#10;&#9;&#9;c8.8,0.8,17.4,3,25.5,6.4c5,1.9,9.7,3.7,16.3,4.5c7.8,0.9,16.7-2.7,24.5-5.9c7.2-2.9,14.1-5.7,19.3-4.8c7.8,1.4,14.3,8.4,19.5,13.9&#10;&#9;&#9;c1.7,1.9,3.4,3.6,5.3,5.2c4.9,3.9,12.1,1.4,12.2,1.4c0.3-0.1,0.6-0.1,0.9,0.1c0.3,0.2,0.4,0.5,0.5,0.8l1.5,25.2&#10;&#9;&#9;c0,0.3-0.1,0.6-0.3,0.8c-0.2,0.2-0.5,0.3-0.8,0.3c-3.4-0.2-6.9-0.2-10.3,0c-2.4,0.1-7,5-12,10.2c-8.5,8.8-19,19.8-29,20.1&#10;&#9;&#9;L309.3,213.1z M269.5,199.1c0.9,0,1.8,0.1,2.7,0.4c2,0.7,4.4,1.8,7.2,3.1c8.1,3.7,19.2,8.8,30.9,8.5c9.2-0.2,19.4-10.9,27.6-19.4&#10;&#9;&#9;c5.7-5.9,10.2-10.6,13.3-10.8c3.1-0.2,6.3-0.2,9.5-0.1l-1.4-22.7c-2.5,0.6-8.4,1.5-12.9-2.1c-2-1.7-3.8-3.5-5.6-5.4&#10;&#9;&#9;c-5-5.4-11.3-12-18.4-13.3c-4.6-0.9-11.2,1.8-18.1,4.6c-8.1,3.3-17.3,7-25.5,6.1c-6.9-0.8-11.7-2.7-16.8-4.6&#10;&#9;&#9;c-7.9-3.3-16.4-5.4-24.9-6.2c-13.7-1.4-24.5,4.6-32.4,8.9c-4.6,2.5-8.2,4.5-11.2,4.5c-5.3,0-8.6-0.2-10.2-0.3v27.4&#10;&#9;&#9;c2.7,0.3,10.1,1.6,14.5,7.3c5.7,7.4,16.9,20.4,27.8,23.7c6,1.8,16.9-1.8,26.4-4.9C258.9,201.2,265.2,199.1,269.5,199.1L269.5,199.1&#10;&#9;&#9;z"/>
	<path class="st1_superman-37" d="M243.6,189.1c-3,0-6.1-0.5-9-1.3c-11.9-3.4-19.9-12.4-17.7-20c0.9-2.8,2.9-5.2,5.5-6.5&#10;&#9;&#9;c5.1-2.9,12.6-3.3,20.1-1.2c11.9,3.4,19.9,12.4,17.7,20C258.6,185.7,251.9,189.1,243.6,189.1z M233.4,160.7&#10;&#9;&#9;c-3.5-0.1-6.9,0.7-10,2.3c-2.2,1.1-3.8,3-4.6,5.3c-1.9,6.6,5.4,14.5,16.3,17.6s21.2,0.2,23.1-6.4s-5.4-14.5-16.3-17.5&#10;&#9;&#9;C239.1,161.2,236.3,160.8,233.4,160.7z"/>
	<path class="st1_superman-37" d="M360.2,156.7c0,0-7.7,2.7-13.2-1.6s-13.9-17-24.4-19s-28.6,12.5-43.8,10.7s-20.1-8.7-41.8-10.9&#10;&#9;&#9;s-36,13.3-43.8,13.3s-11.2-0.4-11.2-0.4v29.4c0,0,9.7,0.4,14.7,7s16.6,20.5,28.3,24s38.9-11.6,46.8-8.9s22.5,12,38.4,11.6&#10;&#9;&#9;s34.1-29.8,41-30.2c3.5-0.2,7-0.2,10.5,0L360.2,156.7z M259.2,179.8c-2,7.1-12.9,10.3-24.3,7.1s-19-11.6-17-18.8&#10;&#9;&#9;s12.9-10.3,24.3-7.1S261.2,172.6,259.2,179.8L259.2,179.8z M308.9,186.9c-11.4,3.2-22.3,0.1-24.3-7.1s5.6-15.6,17-18.8&#10;&#9;&#9;s22.3-0.1,24.3,7.1S320.3,183.6,308.9,186.9L308.9,186.9z"/>
	<path class="st1_superman-37" d="M300.2,189.1c-8.2,0-15-3.4-16.6-9c-2.2-7.7,5.8-16.6,17.7-20s23.4,0.1,25.6,7.8s-5.8,16.6-17.7,20l0,0&#10;&#9;&#9;C306.3,188.7,303.2,189.1,300.2,189.1z M310.5,160.7c-2.9,0-5.8,0.4-8.6,1.2c-10.9,3.1-18.2,11-16.3,17.6s12.2,9.4,23.1,6.4l0,0&#10;&#9;&#9;c10.9-3.1,18.2-11,16.3-17.6C323.6,163.5,317.8,160.7,310.5,160.7z M308.9,186.9L308.9,186.9z"/>
	<path class="st0_superman-37" d="M271.9,318.6c0,0-15.5,7.9-16.8,24.2C255.1,342.9,269.3,340.8,271.9,318.6z"/>
	<path class="st1_superman-37" d="M255.1,345c-1.2,0-2.2-1-2.2-2.2c0-0.1,0-0.1,0-0.2c1.4-17.3,17.3-25.6,18-26c0.7-0.4,1.6-0.3,2.2,0.1&#10;&#9;&#9;c0.6,0.5,1,1.2,0.9,2c-2.8,23.5-18,26-18.7,26.1L255.1,345z M268.9,323.2c-3.9,3-9.4,8.5-11.1,16.4&#10;&#9;&#9;C261.1,338,266.5,333.7,268.9,323.2L268.9,323.2z"/>
	<path class="st0_superman-37" d="M271.9,318.6c0,0,0.5,17.6,17.7,22.8C289.6,341.4,294.6,327.7,271.9,318.6z"/>
	<path class="st1_superman-37" d="M289.6,343.6c-0.2,0-0.4,0-0.6-0.1c-18.6-5.6-19.3-24.6-19.3-24.8c0-0.7,0.3-1.4,0.9-1.8&#10;&#9;&#9;c0.6-0.4,1.3-0.5,2-0.2c24.4,9.7,19,25.4,19,25.5C291.4,343,290.5,343.6,289.6,343.6z M274.6,322.2c1.4,7.3,6.4,13.5,13.4,16.3&#10;&#9;&#9;C288.1,335.1,286.6,328,274.6,322.2z"/>
	<rect x="213.9" y="411.7" class="st1_superman-37" width="115.9" height="43.1"/>
	<path class="st1_superman-37" d="M329.9,457.3H213.9c-1.3,0-2.4-1.1-2.4-2.4l0,0v-43.1c0-1.3,1.1-2.4,2.4-2.4c0,0,0,0,0,0h115.9&#10;&#9;&#9;c1.3,0,2.4,1.1,2.4,2.4v0v43.1C332.3,456.2,331.2,457.3,329.9,457.3L329.9,457.3z M216.4,452.5h111.1v-38.3H216.4L216.4,452.5z"/>
	<path class="st3_superman-37" d="M281,224.1c0,0-25.1-5.6-23.8-4.3c1.3,1.3-3.7,26.3,8.3,26.4C278.3,246.2,280.4,231,281,224.1z"/>
	<path class="st1_superman-37" d="M265.6,248.5h-0.2c-2.5,0-4.8-1-6.5-2.8c-4.7-4.9-4.3-14.9-4-21.4c0.1-1.3,0.1-3,0.1-3.6&#10;&#9;&#9;c-0.4-0.7-0.4-1.6,0-2.3c1-1.9,1.3-2.4,26.5,3.2c1.2,0.3,2,1.4,1.9,2.6C281.7,244.3,272.8,248.5,265.6,248.5z M259.9,222.2&#10;&#9;&#9;c0,0.6,0,1.4-0.1,2.3c-0.2,5.1-0.6,14.5,2.7,17.9c0.8,0.8,1.9,1.3,3,1.2h0.1c7.1,0,11.3-5.8,12.7-17.7&#10;&#9;&#9;C271.1,224.4,263.6,222.8,259.9,222.2L259.9,222.2z"/>
	<path class="st2_superman-37 targetColor" d="M160.2,266.4c4.4-6,14.2-11.7,22.7-10.6c8.6,1.2,16.2,6.3,20.5,13.8" style="fill: rgb(104, 225, 253);"/>
	<path class="st1_superman-37" d="M203.4,272.1c-0.9,0-1.7-0.5-2.1-1.2c-4-6.9-10.9-11.5-18.7-12.6c-7.6-1-16.5,4.2-20.4,9.6&#10;&#9;&#9;c-0.8,1.1-2.3,1.3-3.4,0.5c-1.1-0.8-1.3-2.3-0.5-3.4c4.8-6.6,15.5-12.8,25-11.5c9.4,1.3,17.6,6.8,22.3,15c0.7,1.2,0.2,2.6-0.9,3.3&#10;&#9;&#9;C204.3,272,203.9,272.1,203.4,272.1L203.4,272.1z"/>
	<path class="st2_superman-37 targetColor" d="M389.2,266.4c-4.4-6-14.2-11.7-22.7-10.6c-8.6,1.2-16.2,6.3-20.5,13.8" style="fill: rgb(104, 225, 253);"/>
	<path class="st1_superman-37" d="M346,272.1c-0.4,0-0.8-0.1-1.2-0.3c-1.2-0.7-1.6-2.1-0.9-3.3c0,0,0,0,0,0c4.7-8.2,13-13.7,22.3-15&#10;&#9;&#9;c9.5-1.2,20.1,4.9,25,11.5c0.8,1.1,0.5,2.6-0.6,3.4c-1.1,0.7-2.5,0.5-3.3-0.5c-3.9-5.4-12.8-10.6-20.4-9.6&#10;&#9;&#9;c-7.9,1.1-14.8,5.7-18.8,12.6C347.7,271.7,346.9,272.1,346,272.1z"/>
</g>
</svg>